<?xml version="1.0" encoding="UTF-8" standalone="no"?>
<!-- Created with Inkscape (http://www.inkscape.org/) -->

<svg
   width="1000"
   height="460.44501"
   viewBox="0 0 999.99998 460.445"
   version="1.1"
   id="svg1"
   sodipodi:docname="loguito.svg"
   inkscape:version="1.3 (0e150ed6c4, 2023-07-21)"
   xml:space="preserve"
   xmlns:inkscape="http://www.inkscape.org/namespaces/inkscape"
   xmlns:sodipodi="http://sodipodi.sourceforge.net/DTD/sodipodi-0.dtd"
   xmlns="http://www.w3.org/2000/svg"
   xmlns:svg="http://www.w3.org/2000/svg"
   xmlns:rdf="http://www.w3.org/1999/02/22-rdf-syntax-ns#"
   xmlns:cc="http://creativecommons.org/ns#"
   xmlns:dc="http://purl.org/dc/elements/1.1/"><title
     id="title10">Tapp</title><sodipodi:namedview
     id="namedview1"
     pagecolor="#ffffff"
     bordercolor="#666666"
     borderopacity="1.0"
     inkscape:showpageshadow="true"
     inkscape:pageopacity="0.0"
     inkscape:pagecheckerboard="false"
     inkscape:deskcolor="#d1d1d1"
     inkscape:document-units="px"
     showgrid="false"
     showborder="true"
     borderlayer="true"
     showguides="true"
     inkscape:zoom="0.674"
     inkscape:cx="500"
     inkscape:cy="229.97033"
     inkscape:window-width="1366"
     inkscape:window-height="705"
     inkscape:window-x="-8"
     inkscape:window-y="-8"
     inkscape:window-maximized="1"
     inkscape:current-layer="layer1" /><defs
     id="defs1" /><g
     inkscape:label="Capa 1"
     inkscape:groupmode="layer"
     id="layer1"
     transform="translate(7864946.2,-475888.28)"><path
       id="rect1"
       style="fill:#0093c8;fill-opacity:1;fill-rule:evenodd;stroke-width:46355.1;stroke-linecap:round;paint-order:fill markers stroke"
       d="m -7864913.6,475913.28 c -4.2,0 -7.6,3.37 -7.6,7.55 v 30.49 c 0,4.19 3.4,7.56 7.6,7.56 h 68.4 v 182.47 c 0,4.18 3.4,7.55 7.6,7.55 h 30.5 c 4.2,0 7.6,-3.37 7.6,-7.55 v -182.47 h 68.4 c 4.2,0 7.6,-3.37 7.6,-7.56 v -30.49 c 0,-4.18 -3.4,-7.55 -7.6,-7.55 z m 281.3,60.8 c -8,0 -15.9,0.78 -23.8,2.34 -7.8,1.55 -15.4,3.87 -22.8,6.92 -14.7,6.11 -28.1,15.07 -39.4,26.36 -5.7,5.64 -10.7,11.81 -15.2,18.43 -4.4,6.63 -8.1,13.67 -11.2,21.03 -3,7.36 -5.4,15 -6.9,22.81 -1.6,7.82 -2.3,15.77 -2.3,23.73 0,7.97 0.7,15.92 2.3,23.73 1.5,7.81 3.9,15.46 6.9,22.82 3.1,7.36 6.8,14.4 11.2,21.02 4.5,6.63 9.5,12.8 15.2,18.43 5.6,5.64 11.8,10.7 18.4,15.13 6.6,4.42 13.7,8.19 21,11.24 7.4,3.05 15,5.36 22.8,6.92 7.9,1.55 15.8,2.33 23.8,2.33 7.9,0 15.9,-0.78 23.7,-2.33 7.8,-1.56 15.5,-3.87 22.8,-6.92 7.4,-3.05 14.4,-6.82 21,-11.24 3,-1.95 5.8,-4.03 8.5,-6.22 v 19.14 c 0,4.19 3.4,7.56 7.5,7.56 h 30.5 c 4.2,0 7.6,-3.37 7.6,-7.56 v -113.61 c 0,-0.15 0,-0.3 0,-0.46 0,-7.96 -0.8,-15.89 -2.3,-23.71 -1.6,-7.81 -3.9,-15.45 -7,-22.81 -6.1,-14.75 -15,-28.16 -26.3,-39.46 -11.3,-11.29 -24.7,-20.25 -39.5,-26.36 -7.3,-3.05 -15,-5.37 -22.8,-6.92 -7.8,-1.56 -15.8,-2.34 -23.7,-2.34 z m 273.6,0 c -8,0 -15.9,0.78 -23.7,2.34 -7.8,1.55 -15.5,3.87 -22.8,6.92 -14.8,6.11 -28.2,15.07 -39.5,26.36 -11.3,11.3 -20.2,24.71 -26.4,39.46 -3,7.36 -5.3,15 -6.9,22.81 -1.5,7.82 -2.3,15.75 -2.3,23.71 0,0.16 0,0.31 0,0.46 v 220.02 c 0,4.19 3.4,7.56 7.5,7.56 h 30.5 c 4.2,0 7.6,-3.37 7.6,-7.56 v -125.55 c 2.7,2.19 5.5,4.27 8.4,6.22 6.7,4.42 13.7,8.19 21.1,11.24 7.3,3.05 15,5.36 22.8,6.92 7.8,1.55 15.7,2.33 23.7,2.33 8,0 15.9,-0.78 23.7,-2.33 7.8,-1.56 15.5,-3.87 22.8,-6.92 7.4,-3.05 14.4,-6.82 21.1,-11.24 6.6,-4.43 12.8,-9.49 18.4,-15.13 5.6,-5.63 10.7,-11.8 15.1,-18.43 4.5,-6.62 8.2,-13.66 11.3,-21.02 3,-7.36 5.3,-15.01 6.9,-22.82 1.5,-7.81 2.3,-15.76 2.3,-23.73 0,-7.96 -0.8,-15.91 -2.3,-23.73 -1.6,-7.81 -3.9,-15.45 -6.9,-22.81 -3.1,-7.36 -6.8,-14.4 -11.3,-21.03 -4.4,-6.62 -9.5,-12.79 -15.1,-18.43 -11.3,-11.29 -24.7,-20.25 -39.5,-26.36 -7.3,-3.05 -15,-5.37 -22.8,-6.92 -7.8,-1.56 -15.7,-2.34 -23.7,-2.34 z m 265.9,0 c -7.9,0 -15.9,0.78 -23.7,2.34 -7.8,1.55 -15.5,3.87 -22.8,6.92 -14.8,6.11 -28.2,15.07 -39.5,26.36 -11.3,11.3 -20.2,24.71 -26.3,39.46 -3.1,7.36 -5.4,15 -7,22.81 -1.5,7.82 -2.3,15.75 -2.3,23.71 0,0.16 0,0.31 0,0.46 v 220.02 c 0,4.19 3.4,7.56 7.6,7.56 h 30.5 c 4.1,0 7.5,-3.37 7.5,-7.56 v -125.55 c 2.7,2.19 5.5,4.27 8.5,6.22 6.6,4.42 13.6,8.19 21,11.24 7.3,3.05 15,5.36 22.8,6.92 7.8,1.55 15.8,2.33 23.7,2.33 8,0 15.9,-0.78 23.7,-2.33 7.9,-1.56 15.5,-3.87 22.9,-6.92 7.3,-3.05 14.4,-6.82 21,-11.24 6.6,-4.43 12.8,-9.49 18.4,-15.13 5.7,-5.63 10.7,-11.8 15.1,-18.43 4.5,-6.62 8.2,-13.66 11.3,-21.02 3,-7.36 5.3,-15.01 6.9,-22.82 1.6,-7.81 2.3,-15.76 2.3,-23.73 0,-7.96 -0.7,-15.91 -2.3,-23.73 -1.6,-7.81 -3.9,-15.45 -6.9,-22.81 -3.1,-7.36 -6.8,-14.4 -11.3,-21.03 -4.4,-6.62 -9.4,-12.79 -15.1,-18.43 -11.3,-11.29 -24.7,-20.25 -39.4,-26.36 -7.4,-3.05 -15,-5.37 -22.9,-6.92 -7.8,-1.56 -15.7,-2.34 -23.7,-2.34 z m -539.5,45.63 c 5,0 9.9,0.49 14.8,1.46 4.9,0.97 9.7,2.42 14.3,4.32 9.2,3.82 17.6,9.42 24.6,16.48 7.1,7.05 12.7,15.43 16.5,24.65 1.9,4.6 3.3,9.38 4.3,14.26 1,4.88 1.5,9.85 1.5,14.82 0,4.98 -0.5,9.95 -1.5,14.83 -1,4.88 -2.4,9.66 -4.3,14.26 -3.8,9.22 -9.4,17.59 -16.5,24.65 -3.5,3.52 -7.4,6.68 -11.5,9.45 -4.1,2.77 -8.5,5.12 -13.1,7.02 -4.6,1.91 -9.4,3.35 -14.3,4.33 -4.9,0.97 -9.8,1.46 -14.8,1.46 -5,0 -10,-0.49 -14.9,-1.46 -4.8,-0.98 -9.6,-2.42 -14.2,-4.33 -4.6,-1.9 -9,-4.25 -13.1,-7.02 -4.2,-2.77 -8,-5.93 -11.6,-9.45 -3.5,-3.52 -6.6,-7.38 -9.4,-11.52 -2.8,-4.13 -5.1,-8.54 -7,-13.13 -1.9,-4.6 -3.4,-9.38 -4.4,-14.26 -0.9,-4.88 -1.4,-9.85 -1.4,-14.83 0,-4.97 0.5,-9.94 1.4,-14.82 1,-4.88 2.5,-9.66 4.4,-14.26 1.9,-4.6 4.2,-9 7,-13.14 2.8,-4.14 5.9,-7.99 9.4,-11.51 7.1,-7.06 15.5,-12.66 24.7,-16.48 4.6,-1.9 9.4,-3.35 14.2,-4.32 4.9,-0.97 9.9,-1.46 14.9,-1.46 z m 273.6,0 c 5,0 9.9,0.49 14.8,1.46 4.9,0.97 9.7,2.42 14.3,4.32 9.2,3.82 17.6,9.42 24.6,16.48 3.6,3.52 6.7,7.37 9.5,11.51 2.8,4.14 5.1,8.54 7,13.14 1.9,4.6 3.4,9.38 4.3,14.26 1,4.88 1.5,9.85 1.5,14.82 0,4.98 -0.5,9.95 -1.5,14.83 -0.9,4.88 -2.4,9.66 -4.3,14.26 -1.9,4.59 -4.2,9 -7,13.13 -2.8,4.14 -5.9,8 -9.5,11.52 -3.5,3.52 -7.3,6.68 -11.5,9.45 -4.1,2.77 -8.5,5.12 -13.1,7.02 -4.6,1.91 -9.4,3.35 -14.3,4.33 -4.9,0.97 -9.8,1.46 -14.8,1.46 -5,0 -9.9,-0.49 -14.8,-1.46 -4.9,-0.98 -9.7,-2.42 -14.3,-4.33 -4.6,-1.9 -9,-4.25 -13.1,-7.02 -4.2,-2.77 -8,-5.93 -11.5,-9.45 -7.1,-7.06 -12.7,-15.43 -16.5,-24.65 -1.9,-4.6 -3.4,-9.38 -4.3,-14.26 -1,-4.88 -1.5,-9.85 -1.5,-14.83 0,-4.97 0.5,-9.94 1.5,-14.82 0.9,-4.88 2.4,-9.66 4.3,-14.26 3.8,-9.22 9.4,-17.6 16.5,-24.65 7,-7.06 15.4,-12.66 24.6,-16.48 4.6,-1.9 9.4,-3.35 14.3,-4.32 4.9,-0.97 9.8,-1.46 14.8,-1.46 z m 265.9,0 c 5,0 10,0.49 14.8,1.46 4.9,0.97 9.7,2.42 14.3,4.32 9.2,3.82 17.6,9.42 24.7,16.48 3.5,3.52 6.6,7.37 9.4,11.51 2.8,4.14 5.1,8.54 7,13.14 1.9,4.6 3.4,9.38 4.4,14.26 0.9,4.88 1.4,9.85 1.4,14.82 0,4.98 -0.5,9.95 -1.4,14.83 -1,4.88 -2.5,9.66 -4.4,14.26 -1.9,4.59 -4.2,9 -7,13.13 -2.8,4.14 -5.9,8 -9.4,11.52 -3.6,3.52 -7.4,6.68 -11.6,9.45 -4.1,2.77 -8.5,5.12 -13.1,7.02 -4.6,1.91 -9.4,3.35 -14.3,4.33 -4.8,0.97 -9.8,1.46 -14.8,1.46 -5,0 -9.9,-0.49 -14.8,-1.46 -4.9,-0.98 -9.7,-2.42 -14.3,-4.33 -4.6,-1.9 -9,-4.25 -13.1,-7.02 -4.1,-2.77 -8,-5.93 -11.5,-9.45 -7.1,-7.06 -12.7,-15.43 -16.5,-24.65 -1.9,-4.6 -3.3,-9.38 -4.3,-14.26 -1,-4.88 -1.5,-9.85 -1.5,-14.83 0,-4.97 0.5,-9.94 1.5,-14.82 1,-4.88 2.4,-9.66 4.3,-14.26 3.8,-9.22 9.4,-17.6 16.5,-24.65 7,-7.06 15.4,-12.66 24.6,-16.48 4.6,-1.9 9.4,-3.35 14.3,-4.32 4.9,-0.97 9.8,-1.46 14.8,-1.46 z"
       mask="none"
       clip-path="none" /><path
       id="path2"
       style="fill:#f8bc01;fill-opacity:1;fill-rule:evenodd;stroke-width:46355.1;stroke-linecap:round;paint-order:fill markers stroke"
       d="m -7864837.6,476171.7 h 30.5 c 4.1,0 7.5,3.37 7.5,7.56 v 30.45 c 0,4.19 -3.4,7.56 -7.5,7.56 h -30.5 c -4.2,0 -7.6,-3.37 -7.6,-7.56 v -30.45 c 0,-4.19 3.4,-7.56 7.6,-7.56 z"
       sodipodi:nodetypes="sssssssss"
       mask="none"
       clip-path="none" /></g><metadata
     id="metadata10"><rdf:RDF><cc:Work
         rdf:about=""><dc:title>Tapp</dc:title><dc:subject><rdf:Bag><rdf:li>Tapp</rdf:li><rdf:li>Caja Los Andes</rdf:li><rdf:li>App</rdf:li><rdf:li>Aplicación</rdf:li><rdf:li>Tarjeta</rdf:li><rdf:li>Prepago</rdf:li><rdf:li>Chile</rdf:li><rdf:li>Logo</rdf:li><rdf:li>SVG</rdf:li><rdf:li>Vector</rdf:li><rdf:li>PDF</rdf:li><rdf:li>Escalable</rdf:li></rdf:Bag></dc:subject></cc:Work></rdf:RDF></metadata></svg>
